<svg xmlns="http://www.w3.org/2000/svg" xmlns:xlink="http://www.w3.org/1999/xlink" width="1920" zoomAndPan="magnify" viewBox="0 0 1440 809.999993" height="1080" preserveAspectRatio="xMidYMid meet" version="1.0"><defs><g/><clipPath id="b0dc9d40fb"><path d="M 340.925781 200.398438 L 430 200.398438 L 430 491.398438 L 340.925781 491.398438 Z M 340.925781 200.398438 " clip-rule="nonzero"/></clipPath><clipPath id="4f204341ce"><path d="M 955 200.398438 L 1041.75 200.398438 L 1041.75 491.398438 L 955 491.398438 Z M 955 200.398438 " clip-rule="nonzero"/></clipPath></defs><rect x="-144" width="1728" fill="#ffffff" y="-80.999999" height="971.999992" fill-opacity="1"/><rect x="-144" width="1728" fill="#606cf5" y="-80.999999" height="971.999992" fill-opacity="1"/><g fill="#ffffff" fill-opacity="1"><g transform="translate(600.108658, 451.766424)"><g><path d="M 3.957031 0 L 39.179688 0 C 60.390625 0 72.183594 -10.050781 72.183594 -28.019531 C 72.183594 -46.0625 60.390625 -56.117188 39.179688 -56.117188 L 3.957031 -56.117188 Z M 14.800781 -8.308594 L 14.800781 -47.648438 L 38.226562 -47.648438 C 53.109375 -47.648438 61.417969 -40.683594 61.417969 -28.019531 C 61.417969 -15.355469 53.109375 -8.308594 38.226562 -8.308594 Z M 14.800781 -8.308594 "/></g></g></g><g fill="#ffffff" fill-opacity="1"><g transform="translate(675.288601, 451.766424)"><g><path d="M 3.957031 0 L 60.546875 0 L 60.546875 -7.992188 L 14.640625 -7.992188 L 14.640625 -25.167969 L 56.589844 -25.167969 L 56.589844 -32.53125 L 14.640625 -32.53125 L 14.640625 -48.042969 L 59.757812 -48.042969 L 59.757812 -56.117188 L 3.957031 -56.117188 Z M 3.957031 0 "/></g></g></g><g fill="#ffffff" fill-opacity="1"><g transform="translate(737.410973, 451.766424)"><g><path d="M 29.046875 0 L 41.316406 0 L 70.441406 -56.117188 L 58.648438 -56.117188 L 35.300781 -10.289062 L 35.140625 -10.289062 L 11.714844 -56.117188 L 0 -56.117188 Z M 29.046875 0 "/></g></g></g><g fill="#0e073f" fill-opacity="1"><g transform="translate(426.65659, 356.174709)"><g><path d="M 72.203125 -43.34375 C 76.953125 -41.675781 80.671875 -39.082031 83.359375 -35.5625 C 86.054688 -32.039062 87.40625 -27.785156 87.40625 -22.796875 C 87.40625 -15.515625 84.472656 -9.894531 78.609375 -5.9375 C 72.753906 -1.976562 64.285156 0 53.203125 0 L 8.3125 0 L 8.3125 -83.125 L 50.828125 -83.125 C 61.429688 -83.125 69.503906 -81.164062 75.046875 -77.25 C 80.585938 -73.332031 83.359375 -68.046875 83.359375 -61.390625 C 83.359375 -57.429688 82.390625 -53.890625 80.453125 -50.765625 C 78.515625 -47.640625 75.765625 -45.164062 72.203125 -43.34375 Z M 31.59375 -66.140625 L 31.59375 -50.109375 L 47.734375 -50.109375 C 55.648438 -50.109375 59.609375 -52.800781 59.609375 -58.1875 C 59.609375 -63.488281 55.648438 -66.140625 47.734375 -66.140625 Z M 51.296875 -16.984375 C 59.535156 -16.984375 63.65625 -19.789062 63.65625 -25.40625 C 63.65625 -31.03125 59.535156 -33.84375 51.296875 -33.84375 L 31.59375 -33.84375 L 31.59375 -16.984375 Z M 51.296875 -16.984375 "/></g></g></g><g fill="#0e073f" fill-opacity="1"><g transform="translate(514.172274, 356.174709)"><g><path d="M 7.25 -64.359375 L 29.8125 -64.359375 L 29.8125 0 L 7.25 0 Z M 18.53125 -71.484375 C 14.414062 -71.484375 11.085938 -72.628906 8.546875 -74.921875 C 6.015625 -77.222656 4.75 -80.078125 4.75 -83.484375 C 4.75 -86.890625 6.015625 -89.738281 8.546875 -92.03125 C 11.085938 -94.320312 14.414062 -95.46875 18.53125 -95.46875 C 22.644531 -95.46875 25.96875 -94.378906 28.5 -92.203125 C 31.039062 -90.023438 32.3125 -87.238281 32.3125 -83.84375 C 32.3125 -80.28125 31.039062 -77.328125 28.5 -74.984375 C 25.96875 -72.648438 22.644531 -71.484375 18.53125 -71.484375 Z M 18.53125 -71.484375 "/></g></g></g><g fill="#0e073f" fill-opacity="1"><g transform="translate(547.539771, 356.174709)"><g><path d="M 63.296875 -16.859375 L 63.296875 0 L 3.921875 0 L 3.921875 -13.296875 L 33.71875 -47.625 L 4.75 -47.625 L 4.75 -64.359375 L 62.109375 -64.359375 L 62.109375 -51.1875 L 32.296875 -16.859375 Z M 63.296875 -16.859375 "/></g></g></g><g fill="#0e073f" fill-opacity="1"><g transform="translate(609.762554, 356.174709)"><g><path d="M 74.9375 -64.359375 L 74.9375 0 L 53.4375 0 L 53.4375 -6.890625 C 51.0625 -4.273438 48.210938 -2.296875 44.890625 -0.953125 C 41.566406 0.390625 38.039062 1.0625 34.3125 1.0625 C 26 1.0625 19.367188 -1.390625 14.421875 -6.296875 C 9.472656 -11.203125 7 -18.5625 7 -28.375 L 7 -64.359375 L 29.5625 -64.359375 L 29.5625 -32.0625 C 29.5625 -27.226562 30.472656 -23.703125 32.296875 -21.484375 C 34.117188 -19.273438 36.769531 -18.171875 40.25 -18.171875 C 43.8125 -18.171875 46.722656 -19.414062 48.984375 -21.90625 C 51.242188 -24.40625 52.375 -28.226562 52.375 -33.375 L 52.375 -64.359375 Z M 74.9375 -64.359375 "/></g></g></g><g fill="#0e073f" fill-opacity="1"><g transform="translate(688.134803, 356.174709)"><g><path d="M 28.734375 -56.640625 C 31.035156 -59.566406 34.023438 -61.765625 37.703125 -63.234375 C 41.378906 -64.703125 45.59375 -65.4375 50.34375 -65.4375 L 50.34375 -45.125 C 48.289062 -45.363281 46.59375 -45.484375 45.25 -45.484375 C 40.414062 -45.484375 36.632812 -44.175781 33.90625 -41.5625 C 31.175781 -38.945312 29.8125 -34.945312 29.8125 -29.5625 L 29.8125 0 L 7.25 0 L 7.25 -64.359375 L 28.734375 -64.359375 Z M 28.734375 -56.640625 "/></g></g></g><g fill="#0e073f" fill-opacity="1"><g transform="translate(736.939275, 356.174709)"><g><path d="M 34.671875 -65.4375 C 45.359375 -65.4375 53.507812 -63 59.125 -58.125 C 64.75 -53.257812 67.5625 -45.800781 67.5625 -35.75 L 67.5625 0 L 46.546875 0 L 46.546875 -8.3125 C 43.304688 -2.0625 36.972656 1.0625 27.546875 1.0625 C 22.554688 1.0625 18.238281 0.191406 14.59375 -1.546875 C 10.957031 -3.285156 8.207031 -5.640625 6.34375 -8.609375 C 4.488281 -11.578125 3.5625 -14.960938 3.5625 -18.765625 C 3.5625 -24.859375 5.894531 -29.585938 10.5625 -32.953125 C 15.238281 -36.316406 22.445312 -38 32.1875 -38 L 45 -38 C 44.601562 -44.8125 40.050781 -48.21875 31.34375 -48.21875 C 28.257812 -48.21875 25.132812 -47.722656 21.96875 -46.734375 C 18.800781 -45.742188 16.109375 -44.375 13.890625 -42.625 L 6.296875 -57.953125 C 9.859375 -60.328125 14.191406 -62.164062 19.296875 -63.46875 C 24.398438 -64.78125 29.523438 -65.4375 34.671875 -65.4375 Z M 33.84375 -13.1875 C 36.457031 -13.1875 38.753906 -13.816406 40.734375 -15.078125 C 42.710938 -16.347656 44.132812 -18.207031 45 -20.65625 L 45 -26.25 L 35.265625 -26.25 C 28.691406 -26.25 25.40625 -24.070312 25.40625 -19.71875 C 25.40625 -17.738281 26.15625 -16.15625 27.65625 -14.96875 C 29.164062 -13.78125 31.226562 -13.1875 33.84375 -13.1875 Z M 33.84375 -13.1875 "/></g></g></g><g fill="#0e073f" fill-opacity="1"><g transform="translate(807.711778, 356.174709)"><g><path d="M 75.640625 -88.109375 L 75.640625 0 L 54.15625 0 L 54.15625 -6.40625 C 49.957031 -1.425781 43.660156 1.0625 35.265625 1.0625 C 29.410156 1.0625 24.066406 -0.300781 19.234375 -3.03125 C 14.410156 -5.757812 10.59375 -9.65625 7.78125 -14.71875 C 4.96875 -19.789062 3.5625 -25.648438 3.5625 -32.296875 C 3.5625 -38.953125 4.96875 -44.789062 7.78125 -49.8125 C 10.59375 -54.84375 14.410156 -58.703125 19.234375 -61.390625 C 24.066406 -64.085938 29.410156 -65.4375 35.265625 -65.4375 C 42.941406 -65.4375 48.878906 -63.21875 53.078125 -58.78125 L 53.078125 -88.109375 Z M 40.015625 -16.859375 C 43.898438 -16.859375 47.109375 -18.222656 49.640625 -20.953125 C 52.171875 -23.691406 53.4375 -27.472656 53.4375 -32.296875 C 53.4375 -37.046875 52.1875 -40.765625 49.6875 -43.453125 C 47.195312 -46.148438 43.972656 -47.5 40.015625 -47.5 C 36.054688 -47.5 32.8125 -46.148438 30.28125 -43.453125 C 27.75 -40.765625 26.484375 -37.046875 26.484375 -32.296875 C 26.484375 -27.472656 27.75 -23.691406 30.28125 -20.953125 C 32.8125 -18.222656 36.054688 -16.859375 40.015625 -16.859375 Z M 40.015625 -16.859375 "/></g></g></g><g fill="#0e073f" fill-opacity="1"><g transform="translate(886.796491, 356.174709)"><g><path d="M 39.546875 1.0625 C 32.660156 1.0625 26.445312 -0.359375 20.90625 -3.203125 C 15.363281 -6.054688 11.023438 -10.015625 7.890625 -15.078125 C 4.765625 -20.148438 3.203125 -25.890625 3.203125 -32.296875 C 3.203125 -38.628906 4.765625 -44.328125 7.890625 -49.390625 C 11.023438 -54.460938 15.34375 -58.40625 20.84375 -61.21875 C 26.34375 -64.03125 32.578125 -65.4375 39.546875 -65.4375 C 46.515625 -65.4375 52.769531 -64.03125 58.3125 -61.21875 C 63.851562 -58.40625 68.164062 -54.484375 71.25 -49.453125 C 74.332031 -44.429688 75.875 -38.710938 75.875 -32.296875 C 75.875 -25.890625 74.332031 -20.148438 71.25 -15.078125 C 68.164062 -10.015625 63.851562 -6.054688 58.3125 -3.203125 C 52.769531 -0.359375 46.515625 1.0625 39.546875 1.0625 Z M 39.546875 -16.859375 C 43.503906 -16.859375 46.75 -18.222656 49.28125 -20.953125 C 51.8125 -23.691406 53.078125 -27.472656 53.078125 -32.296875 C 53.078125 -37.046875 51.8125 -40.765625 49.28125 -43.453125 C 46.75 -46.148438 43.503906 -47.5 39.546875 -47.5 C 35.585938 -47.5 32.335938 -46.148438 29.796875 -43.453125 C 27.265625 -40.765625 26 -37.046875 26 -32.296875 C 26 -27.472656 27.265625 -23.691406 29.796875 -20.953125 C 32.335938 -18.222656 35.585938 -16.859375 39.546875 -16.859375 Z M 39.546875 -16.859375 "/></g></g></g><g clip-path="url(#b0dc9d40fb)"><path fill="#05f1c7" d="M 421.835938 232.730469 L 429.921875 232.730469 L 429.921875 200.398438 L 421.835938 200.398438 C 395.046875 200.398438 373.328125 222.109375 373.328125 248.898438 L 373.328125 305.480469 C 373.328125 310.570312 370.929688 315.359375 366.859375 318.414062 L 347.453125 332.964844 C 343.570312 335.875 341.199219 340.378906 341 345.226562 C 340.796875 350.074219 342.785156 354.757812 346.414062 357.980469 L 367.898438 377.066406 C 371.351562 380.136719 373.328125 384.535156 373.328125 389.152344 L 373.328125 442.898438 C 373.328125 469.683594 395.046875 491.398438 421.835938 491.398438 L 429.921875 491.398438 L 429.921875 459.0625 L 421.835938 459.0625 C 412.90625 459.0625 405.667969 451.824219 405.667969 442.898438 L 405.667969 389.152344 C 405.667969 375.296875 399.738281 362.105469 389.378906 352.898438 L 382.691406 346.957031 L 386.261719 344.28125 C 398.476562 335.121094 405.667969 320.746094 405.667969 305.480469 L 405.667969 248.898438 C 405.667969 239.96875 412.90625 232.730469 421.835938 232.730469 Z M 421.835938 232.730469 " fill-opacity="1" fill-rule="evenodd"/></g><g clip-path="url(#4f204341ce)"><path fill="#05f1c7" d="M 963.117188 232.730469 L 955.03125 232.730469 L 955.03125 200.398438 L 963.117188 200.398438 C 989.910156 200.398438 1011.625 222.109375 1011.625 248.898438 L 1011.625 305.480469 C 1011.625 310.570312 1014.023438 315.359375 1018.09375 318.414062 L 1037.5 332.964844 C 1041.382812 335.875 1043.753906 340.378906 1043.953125 345.226562 C 1044.15625 350.074219 1042.167969 354.757812 1038.539062 357.980469 L 1017.054688 377.066406 C 1013.601562 380.136719 1011.625 384.535156 1011.625 389.152344 L 1011.625 442.898438 C 1011.625 469.683594 989.910156 491.398438 963.117188 491.398438 L 955.03125 491.398438 L 955.03125 459.0625 L 963.117188 459.0625 C 972.046875 459.0625 979.285156 451.824219 979.285156 442.898438 L 979.285156 389.152344 C 979.285156 375.296875 985.210938 362.105469 995.574219 352.898438 L 1002.261719 346.957031 L 998.691406 344.28125 C 986.476562 335.121094 979.285156 320.746094 979.285156 305.480469 L 979.285156 248.898438 C 979.285156 239.96875 972.046875 232.730469 963.117188 232.730469 Z M 963.117188 232.730469 " fill-opacity="1" fill-rule="evenodd"/></g></svg>